<svg xmlns="http://www.w3.org/2000/svg" width="752" height="191" viewBox="0 0 752 191" font-family="Menlo,Consolas,'DejaVu Sans Mono',monospace,'Apple Color Emoji','Segoe UI Emoji','Noto Color Emoji'" xml:space="preserve">
<style>.b{font-weight:700}.i{font-style:italic}</style>
<defs><filter id="shadow" x="-25%" y="-25%" width="150%" height="160%"><feDropShadow in="SourceGraphic" dx="0" dy="5" stdDeviation="6" flood-opacity="0.19" result="s1"/><feDropShadow in="s1" dx="0" dy="1" stdDeviation="1.5" flood-opacity="0.28"/></filter></defs>
<rect x="24" y="24" width="704" height="143" rx="6" fill="#282a36" filter="url(#shadow)"/>
<defs><linearGradient id="ubar" x1="0" y1="0" x2="0" y2="1"><stop offset="0" stop-color="#4c4641"/><stop offset="1" stop-color="#3a3531"/></linearGradient></defs><path d="M24 30a6 6 0 0 1 6 -6h692a6 6 0 0 1 6 6v28h-704Z" fill="url(#ubar)"/><rect x="24" y="58" width="704" height="26" fill="#3b3733"/>
<circle cx="650" cy="41" r="9" fill="#313547" stroke="#5c5853" stroke-width="1"/><circle cx="676" cy="41" r="9" fill="#313547" stroke="#5c5853" stroke-width="1"/><circle cx="702" cy="41" r="9" fill="#f15d22" stroke="#c34113" stroke-width="1"/><line x1="646.5" y1="43.5" x2="653.5" y2="43.5" stroke="#dfdbd2" stroke-width="1.2"/><rect x="672.5" y="37.5" width="7" height="7" fill="none" stroke="#dfdbd2" stroke-width="1.2"/><path d="M699 38l6 6M705 38l-6 6" stroke="#fff" stroke-width="1.2" stroke-linecap="round"/>
<text x="36" y="71" dominant-baseline="central" font-size="12" font-family="Ubuntu,'DejaVu Sans',sans-serif" fill="#d5d0cb">File</text><text x="74" y="71" dominant-baseline="central" font-size="12" font-family="Ubuntu,'DejaVu Sans',sans-serif" fill="#d5d0cb">Edit</text><text x="112" y="71" dominant-baseline="central" font-size="12" font-family="Ubuntu,'DejaVu Sans',sans-serif" fill="#d5d0cb">View</text><text x="152" y="71" dominant-baseline="central" font-size="12" font-family="Ubuntu,'DejaVu Sans',sans-serif" fill="#d5d0cb">Search</text><text x="202" y="71" dominant-baseline="central" font-size="12" font-family="Ubuntu,'DejaVu Sans',sans-serif" fill="#d5d0cb">Terminal</text><text x="264" y="71" dominant-baseline="central" font-size="12" font-family="Ubuntu,'DejaVu Sans',sans-serif" fill="#d5d0cb">Help</text>
<text x="376" y="41" text-anchor="middle" dominant-baseline="central" font-size="12" font-family="Ubuntu,'DejaVu Sans',sans-serif" class="b" fill="#dfdbd2">chrome-ubuntu</text>


<rect x="40" y="134" width="67.2" height="17" fill="#ff5555"/><rect x="107.2" y="134" width="75.6" height="17" fill="#bd93f9"/><rect x="182.8" y="134" width="142.8" height="17" fill="#69ff94"/>
<g font-size="14">
<text x="40" y="113.54" fill="#f8f8f2">normal</text><text x="98.8" y="113.54" fill="#21222c">black</text><text x="140.8" y="113.54" fill="#ff5555">red</text><text x="166" y="113.54" fill="#50fa7b">green</text><text x="208" y="113.54" fill="#f1fa8c">yellow</text><text x="258.4" y="113.54" fill="#bd93f9">blue</text><text x="292" y="113.54" fill="#ff79c6">magenta</text><text x="350.8" y="113.54" fill="#8be9fd">cyan</text><text x="384.4" y="113.54" fill="#f8f8f2">white</text>
<text x="40" y="130.54" fill="#6272a4">Bblack</text><text x="90.4" y="130.54" fill="#ff6e6e">Bred</text><text x="124" y="130.54" fill="#69ff94">Bgreen</text><text x="174.4" y="130.54" fill="#ffffa5">Byellow</text><text x="233.2" y="130.54" fill="#d6acff">Bblue</text><text x="275.2" y="130.54" fill="#ff92df">Bmagenta</text><text x="342.4" y="130.54" fill="#a4ffff">Bcyan</text><text x="384.4" y="130.54" fill="#ffffff">Bwhite</text>
<text x="48.4" y="147.54" fill="#f8f8f2">red</text><text x="82" y="147.54" fill="#f8f8f2">bg</text><text x="115.6" y="147.54" fill="#f8f8f2">blue</text><text x="157.6" y="147.54" fill="#f8f8f2">bg</text><text x="191.2" y="147.54" fill="#f8f8f2">bright</text><text x="250" y="147.54" fill="#f8f8f2">green</text><text x="300.4" y="147.54" fill="#f8f8f2">bg</text>
</g>
</svg>
