<svg xmlns="http://www.w3.org/2000/svg" width="752" height="175" viewBox="0 0 752 175" font-family="Menlo,Consolas,'DejaVu Sans Mono',monospace,'Apple Color Emoji','Segoe UI Emoji','Noto Color Emoji'" xml:space="preserve">
<style>.b{font-weight:700}.i{font-style:italic}</style>
<defs><filter id="shadow" x="-25%" y="-25%" width="150%" height="160%"><feDropShadow in="SourceGraphic" dx="0" dy="5" stdDeviation="6" flood-opacity="0.19" result="s1"/><feDropShadow in="s1" dx="0" dy="1" stdDeviation="1.5" flood-opacity="0.28"/></filter></defs>
<rect x="24" y="24" width="704" height="127" rx="10" fill="#282a36" filter="url(#shadow)"/>
<circle cx="44" cy="46" r="6.5" fill="#ff5f57"/><circle cx="64" cy="46" r="6.5" fill="#febc2e"/><circle cx="84" cy="46" r="6.5" fill="#28c840"/>
<text x="376" y="46" text-anchor="middle" dominant-baseline="central" font-size="12.6" fill="#6272a4">colors16</text>


<rect x="40" y="118" width="67.2" height="17" fill="#ff5555"/><rect x="107.2" y="118" width="75.6" height="17" fill="#bd93f9"/><rect x="182.8" y="118" width="142.8" height="17" fill="#69ff94"/>
<g font-size="14">
<text x="40" y="97.54" fill="#f8f8f2">normal</text><text x="98.8" y="97.54" fill="#21222c">black</text><text x="140.8" y="97.54" fill="#ff5555">red</text><text x="166" y="97.54" fill="#50fa7b">green</text><text x="208" y="97.54" fill="#f1fa8c">yellow</text><text x="258.4" y="97.54" fill="#bd93f9">blue</text><text x="292" y="97.54" fill="#ff79c6">magenta</text><text x="350.8" y="97.54" fill="#8be9fd">cyan</text><text x="384.4" y="97.54" fill="#f8f8f2">white</text>
<text x="40" y="114.54" fill="#6272a4">Bblack</text><text x="90.4" y="114.54" fill="#ff6e6e">Bred</text><text x="124" y="114.54" fill="#69ff94">Bgreen</text><text x="174.4" y="114.54" fill="#ffffa5">Byellow</text><text x="233.2" y="114.54" fill="#d6acff">Bblue</text><text x="275.2" y="114.54" fill="#ff92df">Bmagenta</text><text x="342.4" y="114.54" fill="#a4ffff">Bcyan</text><text x="384.4" y="114.54" fill="#ffffff">Bwhite</text>
<text x="48.4" y="131.54" fill="#f8f8f2">red</text><text x="82" y="131.54" fill="#f8f8f2">bg</text><text x="115.6" y="131.54" fill="#f8f8f2">blue</text><text x="157.6" y="131.54" fill="#f8f8f2">bg</text><text x="191.2" y="131.54" fill="#f8f8f2">bright</text><text x="250" y="131.54" fill="#f8f8f2">green</text><text x="300.4" y="131.54" fill="#f8f8f2">bg</text>
</g>
</svg>
