<svg xmlns="http://www.w3.org/2000/svg" width="466.4" height="316" viewBox="0 0 466.4 316" font-family="Menlo,Consolas,'DejaVu Sans Mono',monospace,'Apple Color Emoji','Segoe UI Emoji','Noto Color Emoji'" xml:space="preserve">
<style>.b{font-weight:700}.i{font-style:italic}.f{opacity:0;animation-duration:6.15s;animation-timing-function:step-end;animation-iteration-count:infinite}#f0{animation-name:k0}#f1{animation-name:k1}#f2{animation-name:k2}#f3{animation-name:k3}#f4{animation-name:k4}#f5{animation-name:k5}#f6{animation-name:k6}#f7{animation-name:k7}#f8{animation-name:k8}#f9{animation-name:k9}#f10{animation-name:k10}#f11{animation-name:k11}@keyframes k0{0%{opacity:1}1.626%{opacity:0}}@keyframes k1{0%{opacity:0}1.626%{opacity:1}9.7561%{opacity:0}}@keyframes k2{0%{opacity:0}9.7561%{opacity:1}10.4065%{opacity:0}}@keyframes k3{0%{opacity:0}10.4065%{opacity:1}11.3821%{opacity:0}}@keyframes k4{0%{opacity:0}11.3821%{opacity:1}22.7642%{opacity:0}}@keyframes k5{0%{opacity:0}22.7642%{opacity:1}23.5772%{opacity:0}}@keyframes k6{0%{opacity:0}23.5772%{opacity:1}56.0976%{opacity:0}}@keyframes k7{0%{opacity:0}56.0976%{opacity:1}57.7236%{opacity:0}}@keyframes k8{0%{opacity:0}57.7236%{opacity:1}60.9756%{opacity:0}}@keyframes k9{0%{opacity:0}60.9756%{opacity:1}64.2276%{opacity:0}}@keyframes k10{0%{opacity:0}64.2276%{opacity:1}75.6098%{opacity:0}}@keyframes k11{0%{opacity:0}75.6098%{opacity:1}}@media (prefers-reduced-motion:reduce){.f{animation:none}#f11{opacity:1}}.c2{fill:#116329}line.c2{stroke:#116329}.cb{fill:#ffffff}line.cb{stroke:#ffffff}.cf{fill:#24292f}line.cf{stroke:#24292f}.td{display:none}@media(prefers-color-scheme:dark){.tl{display:none}.td{display:inline}.c2{fill:#3fb950}line.c2{stroke:#3fb950}.cb{fill:#0d1117}line.cb{stroke:#0d1117}.cf{fill:#c9d1d9}line.cf{stroke:#c9d1d9}}</style>
<g class="tl">
<defs><filter id="shadow-l" x="-25%" y="-25%" width="150%" height="160%"><feDropShadow in="SourceGraphic" dx="0" dy="5" stdDeviation="6" flood-opacity="0.14" result="s1"/><feDropShadow in="s1" dx="0" dy="1" stdDeviation="1.5" flood-opacity="0.2"/></filter></defs>
<rect x="24" y="24" width="418.4" height="268" rx="10" fill="#ffffff" filter="url(#shadow-l)"/>
<circle cx="44" cy="40" r="6" fill="#ff5f57"/><circle cx="64" cy="40" r="6" fill="#febc2e"/><circle cx="84" cy="40" r="6" fill="#28c840"/>
<text x="233.2" y="40" text-anchor="middle" dominant-baseline="central" font-size="12" font-family="-apple-system,'Segoe UI',sans-serif" fill="#57606a">dual-anim</text>
</g>
<g class="td">
<defs><filter id="shadow-d" x="-25%" y="-25%" width="150%" height="160%"><feDropShadow in="SourceGraphic" dx="0" dy="5" stdDeviation="6" flood-opacity="0.19" result="s1"/><feDropShadow in="s1" dx="0" dy="1" stdDeviation="1.5" flood-opacity="0.28"/></filter></defs>
<rect x="24" y="24" width="418.4" height="268" rx="10" fill="#0d1117" filter="url(#shadow-d)"/>
<circle cx="44" cy="40" r="6" fill="#ff5f57"/><circle cx="64" cy="40" r="6" fill="#febc2e"/><circle cx="84" cy="40" r="6" fill="#28c840"/>
<text x="233.2" y="40" text-anchor="middle" dominant-baseline="central" font-size="12" font-family="-apple-system,'Segoe UI',sans-serif" fill="#8b949e">dual-anim</text>
</g>
<defs>
<g id="r0"><text x="40" y="13.54" class="cf">$</text></g>
<g id="r1"><text x="40" y="13.54" class="cf">$</text><text x="56.8" y="13.54" class="cf">ec</text></g>
<g id="r2"><text x="40" y="13.54" class="cf">$</text><text x="56.8" y="13.54" class="cf">echo</text></g>
<g id="r3"><text x="40" y="13.54" class="cf">$</text><text x="56.8" y="13.54" class="cf">echo</text><text x="98.8" y="13.54" class="cf b">hi</text></g>
<g id="r4"><text x="40" y="13.54" class="c2">hi</text></g>
<g id="r5"><text x="40" y="13.54" class="cf">$</text><text x="56.8" y="13.54" class="cf">progress</text></g>
<g id="r6"><text x="40" y="13.54" class="cf">$</text><text x="56.8" y="13.54" class="cf">progress</text><text x="132.4" y="13.54" class="cf">▓░░</text><text x="166" y="13.54" class="cf">33%</text></g>
<g id="r7"><text x="40" y="13.54" class="cf">$</text><text x="56.8" y="13.54" class="cf">progress</text><text x="132.4" y="13.54" class="cf">▓▓░</text><text x="166" y="13.54" class="cf">66%</text></g>
<g id="r8"><text x="40" y="13.54" class="cf">$</text><text x="56.8" y="13.54" class="cf">progress</text><text x="132.4" y="13.54" class="cf">▓▓▓</text><text x="166" y="13.54" class="cf">100%</text></g>
<g id="r9"><rect x="56.8" y="0" width="33.6" height="17" class="cf"/><text x="40" y="13.54" class="cf">$</text><text x="56.8" y="13.54" class="cb">done</text></g>
</defs>
<g font-size="14">
<g class="f" id="f0"><rect x="40" y="72" width="8.4" height="17" class="cf" opacity="0.55"/></g>
<g class="f" id="f1"><use href="#r0" y="72"/><rect x="56.8" y="72" width="8.4" height="17" class="cf" opacity="0.55"/></g>
<g class="f" id="f2"><use href="#r1" y="72"/><rect x="73.6" y="72" width="8.4" height="17" class="cf" opacity="0.55"/></g>
<g class="f" id="f3"><use href="#r2" y="72"/><rect x="90.4" y="72" width="8.4" height="17" class="cf" opacity="0.55"/></g>
<g class="f" id="f4"><use href="#r3" y="72"/><rect x="115.6" y="72" width="8.4" height="17" class="cf" opacity="0.55"/></g>
<g class="f" id="f5"><use href="#r3" y="72"/><rect x="40" y="89" width="8.4" height="17" class="cf" opacity="0.55"/></g>
<g class="f" id="f6"><use href="#r3" y="72"/><use href="#r4" y="89"/><rect x="40" y="106" width="8.4" height="17" class="cf" opacity="0.55"/></g>
<g class="f" id="f7"><use href="#r3" y="72"/><use href="#r4" y="89"/><use href="#r5" y="106"/><rect x="132.4" y="106" width="8.4" height="17" class="cf" opacity="0.55"/></g>
<g class="f" id="f8"><use href="#r3" y="72"/><use href="#r4" y="89"/><use href="#r6" y="106"/><rect x="191.2" y="106" width="8.4" height="17" class="cf" opacity="0.55"/></g>
<g class="f" id="f9"><use href="#r3" y="72"/><use href="#r4" y="89"/><use href="#r7" y="106"/><rect x="191.2" y="106" width="8.4" height="17" class="cf" opacity="0.55"/></g>
<g class="f" id="f10"><use href="#r3" y="72"/><use href="#r4" y="89"/><use href="#r8" y="106"/><rect x="199.6" y="106" width="8.4" height="17" class="cf" opacity="0.55"/></g>
<g class="f" id="f11"><use href="#r3" y="72"/><use href="#r4" y="89"/><use href="#r8" y="106"/><use href="#r9" y="123"/><rect x="40" y="140" width="8.4" height="17" class="cf" opacity="0.55"/></g>
</g>
</svg>
